<mxfile host="app.diagrams.net" modified="2023-05-18T10:22:21.840Z" agent="Mozilla/5.0 (Windows NT 10.0; Win64; x64) AppleWebKit/537.36 (KHTML, like Gecko) Chrome/93.0.4577.63 Safari/537.36 OPR/79.0.4143.22" etag="lBo5Fa2ZvC5yuXfbW9F8" version="21.3.2" type="device" pages="8">
  <diagram id="9xnl4nsW4Iqbt5WZVTq1" name="Page-2">
    <mxGraphModel dx="1240" dy="904" grid="0" gridSize="10" guides="1" tooltips="1" connect="1" arrows="1" fold="1" page="0" pageScale="1" pageWidth="850" pageHeight="1100" math="0" shadow="0">
      <root>
        <mxCell id="0" />
        <mxCell id="1" parent="0" />
        <mxCell id="6gH0rJzzsNuWpJ_uar2X-4" value="" style="edgeStyle=none;curved=1;rounded=0;orthogonalLoop=1;jettySize=auto;html=1;fontSize=12;startSize=8;endSize=8;" edge="1" parent="1" source="6gH0rJzzsNuWpJ_uar2X-1" target="6gH0rJzzsNuWpJ_uar2X-3">
          <mxGeometry relative="1" as="geometry" />
        </mxCell>
        <mxCell id="6gH0rJzzsNuWpJ_uar2X-1" value="&lt;font face=&quot;calibri&quot; style=&quot;font-size: 11px;&quot;&gt;start&lt;/font&gt;" style="strokeWidth=2;html=1;shape=mxgraph.flowchart.terminator;whiteSpace=wrap;fontSize=16;fillColor=#dae8fc;strokeColor=#6c8ebf;" vertex="1" parent="1">
          <mxGeometry x="-211" y="-48" width="141" height="60" as="geometry" />
        </mxCell>
        <mxCell id="6gH0rJzzsNuWpJ_uar2X-2" value="&lt;font face=&quot;calibri&quot; style=&quot;font-size: 11px;&quot;&gt;initialize data pins as output&lt;/font&gt;" style="rounded=0;whiteSpace=wrap;html=1;fontSize=16;fillColor=#d5e8d4;" vertex="1" parent="1">
          <mxGeometry x="-195" y="49" width="120" height="60" as="geometry" />
        </mxCell>
        <mxCell id="6gH0rJzzsNuWpJ_uar2X-6" value="" style="edgeStyle=none;curved=1;rounded=0;orthogonalLoop=1;jettySize=auto;html=1;fontSize=12;startSize=8;endSize=8;" edge="1" parent="1" source="6gH0rJzzsNuWpJ_uar2X-3" target="6gH0rJzzsNuWpJ_uar2X-5">
          <mxGeometry relative="1" as="geometry" />
        </mxCell>
        <mxCell id="6gH0rJzzsNuWpJ_uar2X-3" value="&lt;font face=&quot;calibri&quot; style=&quot;font-size: 11px;&quot;&gt;initialize RS RW and E as output&lt;/font&gt;" style="rounded=0;whiteSpace=wrap;html=1;fontSize=16;fillColor=#d5e8d4;" vertex="1" parent="1">
          <mxGeometry x="-200.5" y="150" width="120" height="60" as="geometry" />
        </mxCell>
        <mxCell id="6gH0rJzzsNuWpJ_uar2X-5" value="&lt;font face=&quot;calibri&quot; style=&quot;font-size: 11px;&quot;&gt;end&lt;/font&gt;" style="strokeWidth=2;html=1;shape=mxgraph.flowchart.terminator;whiteSpace=wrap;fontSize=16;fillColor=#dae8fc;strokeColor=#6c8ebf;" vertex="1" parent="1">
          <mxGeometry x="-211" y="246" width="141" height="60" as="geometry" />
        </mxCell>
      </root>
    </mxGraphModel>
  </diagram>
  <diagram id="dgb9D5kFYlxsfQv_k2iP" name="Page-3">
    <mxGraphModel dx="1240" dy="904" grid="0" gridSize="10" guides="1" tooltips="1" connect="1" arrows="1" fold="1" page="0" pageScale="1" pageWidth="850" pageHeight="1100" math="0" shadow="0">
      <root>
        <mxCell id="0" />
        <mxCell id="1" parent="0" />
        <mxCell id="H5G4-2lHiQoZlwkO0x1h-1" value="" style="edgeStyle=none;curved=1;rounded=0;orthogonalLoop=1;jettySize=auto;html=1;fontSize=12;startSize=8;endSize=8;" edge="1" parent="1" source="H5G4-2lHiQoZlwkO0x1h-2" target="H5G4-2lHiQoZlwkO0x1h-5">
          <mxGeometry relative="1" as="geometry" />
        </mxCell>
        <mxCell id="H5G4-2lHiQoZlwkO0x1h-2" value="&lt;font face=&quot;calibri&quot; style=&quot;font-size: 11px;&quot;&gt;start&lt;/font&gt;" style="strokeWidth=2;html=1;shape=mxgraph.flowchart.terminator;whiteSpace=wrap;fontSize=16;fillColor=#dae8fc;strokeColor=#6c8ebf;" vertex="1" parent="1">
          <mxGeometry x="-211" y="-48" width="141" height="60" as="geometry" />
        </mxCell>
        <mxCell id="H5G4-2lHiQoZlwkO0x1h-3" value="&lt;font face=&quot;calibri&quot; style=&quot;font-size: 11px;&quot;&gt;set RW and RS as low&lt;/font&gt;" style="rounded=0;whiteSpace=wrap;html=1;fontSize=16;fillColor=#d5e8d4;" vertex="1" parent="1">
          <mxGeometry x="-195" y="49" width="120" height="60" as="geometry" />
        </mxCell>
        <mxCell id="H5G4-2lHiQoZlwkO0x1h-4" value="" style="edgeStyle=none;curved=1;rounded=0;orthogonalLoop=1;jettySize=auto;html=1;fontSize=12;startSize=8;endSize=8;" edge="1" parent="1" source="H5G4-2lHiQoZlwkO0x1h-5" target="H5G4-2lHiQoZlwkO0x1h-6">
          <mxGeometry relative="1" as="geometry" />
        </mxCell>
        <mxCell id="H5G4-2lHiQoZlwkO0x1h-5" value="&lt;font face=&quot;calibri&quot; style=&quot;font-size: 11px;&quot;&gt;set nibble value&lt;/font&gt;" style="rounded=0;whiteSpace=wrap;html=1;fontSize=16;fillColor=#d5e8d4;" vertex="1" parent="1">
          <mxGeometry x="-200.5" y="150" width="120" height="60" as="geometry" />
        </mxCell>
        <mxCell id="H5G4-2lHiQoZlwkO0x1h-6" value="&lt;font face=&quot;calibri&quot; style=&quot;font-size: 11px;&quot;&gt;end&lt;/font&gt;" style="strokeWidth=2;html=1;shape=mxgraph.flowchart.terminator;whiteSpace=wrap;fontSize=16;fillColor=#dae8fc;strokeColor=#6c8ebf;" vertex="1" parent="1">
          <mxGeometry x="-211" y="246" width="141" height="60" as="geometry" />
        </mxCell>
      </root>
    </mxGraphModel>
  </diagram>
  <diagram id="KsBfG1vql8STj9znt-fX" name="Page-4">
    <mxGraphModel dx="1240" dy="904" grid="0" gridSize="10" guides="1" tooltips="1" connect="1" arrows="1" fold="1" page="0" pageScale="1" pageWidth="850" pageHeight="1100" math="0" shadow="0">
      <root>
        <mxCell id="0" />
        <mxCell id="1" parent="0" />
        <mxCell id="W8m6wnubjkGwdobX0yfp-1" value="" style="edgeStyle=none;curved=1;rounded=0;orthogonalLoop=1;jettySize=auto;html=1;fontSize=12;startSize=8;endSize=8;" edge="1" parent="1" source="W8m6wnubjkGwdobX0yfp-2" target="W8m6wnubjkGwdobX0yfp-5">
          <mxGeometry relative="1" as="geometry" />
        </mxCell>
        <mxCell id="W8m6wnubjkGwdobX0yfp-2" value="&lt;font face=&quot;calibri&quot; style=&quot;font-size: 11px;&quot;&gt;start&lt;/font&gt;" style="strokeWidth=2;html=1;shape=mxgraph.flowchart.terminator;whiteSpace=wrap;fontSize=16;fillColor=#dae8fc;strokeColor=#6c8ebf;" vertex="1" parent="1">
          <mxGeometry x="-211" y="-48" width="141" height="60" as="geometry" />
        </mxCell>
        <mxCell id="W8m6wnubjkGwdobX0yfp-3" value="&lt;font face=&quot;calibri&quot; style=&quot;font-size: 11px;&quot;&gt;clear display&lt;/font&gt;" style="rounded=0;whiteSpace=wrap;html=1;fontSize=16;fillColor=#d5e8d4;" vertex="1" parent="1">
          <mxGeometry x="-195" y="49" width="120" height="60" as="geometry" />
        </mxCell>
        <mxCell id="W8m6wnubjkGwdobX0yfp-4" value="" style="edgeStyle=none;curved=1;rounded=0;orthogonalLoop=1;jettySize=auto;html=1;fontSize=12;startSize=8;endSize=8;" edge="1" parent="1" source="W8m6wnubjkGwdobX0yfp-5" target="W8m6wnubjkGwdobX0yfp-6">
          <mxGeometry relative="1" as="geometry" />
        </mxCell>
        <mxCell id="W8m6wnubjkGwdobX0yfp-5" value="&lt;font face=&quot;calibri&quot; style=&quot;font-size: 11px;&quot;&gt;set cursor home&lt;/font&gt;" style="rounded=0;whiteSpace=wrap;html=1;fontSize=16;fillColor=#d5e8d4;" vertex="1" parent="1">
          <mxGeometry x="-200.5" y="150" width="120" height="60" as="geometry" />
        </mxCell>
        <mxCell id="W8m6wnubjkGwdobX0yfp-6" value="&lt;font face=&quot;calibri&quot; style=&quot;font-size: 11px;&quot;&gt;end&lt;/font&gt;" style="strokeWidth=2;html=1;shape=mxgraph.flowchart.terminator;whiteSpace=wrap;fontSize=16;fillColor=#dae8fc;strokeColor=#6c8ebf;" vertex="1" parent="1">
          <mxGeometry x="-211" y="246" width="141" height="60" as="geometry" />
        </mxCell>
      </root>
    </mxGraphModel>
  </diagram>
  <diagram id="UavjtOqFjUL5xabN85i5" name="Page-5">
    <mxGraphModel dx="1240" dy="904" grid="0" gridSize="10" guides="1" tooltips="1" connect="1" arrows="1" fold="1" page="0" pageScale="1" pageWidth="850" pageHeight="1100" math="0" shadow="0">
      <root>
        <mxCell id="0" />
        <mxCell id="1" parent="0" />
        <mxCell id="uxhSXaf73qEXvOdrYMbk-3" value="" style="edgeStyle=none;curved=1;rounded=0;orthogonalLoop=1;jettySize=auto;html=1;fontSize=12;startSize=8;endSize=8;" edge="1" parent="1" source="vs1kBB6Tge2B4ktXbhhO-2" target="uxhSXaf73qEXvOdrYMbk-1">
          <mxGeometry relative="1" as="geometry" />
        </mxCell>
        <mxCell id="vs1kBB6Tge2B4ktXbhhO-2" value="&lt;font face=&quot;calibri&quot; style=&quot;font-size: 11px;&quot;&gt;start&lt;/font&gt;" style="strokeWidth=2;html=1;shape=mxgraph.flowchart.terminator;whiteSpace=wrap;fontSize=16;fillColor=#dae8fc;strokeColor=#6c8ebf;" vertex="1" parent="1">
          <mxGeometry x="-211" y="-48" width="141" height="60" as="geometry" />
        </mxCell>
        <mxCell id="vs1kBB6Tge2B4ktXbhhO-3" value="&lt;font style=&quot;font-size: 11px;&quot; face=&quot;calibri&quot;&gt;LCD_vidWritecmd((pos &amp;amp; 0x0F)| 0x80)&lt;/font&gt;" style="rounded=0;whiteSpace=wrap;html=1;fontSize=16;fillColor=#d5e8d4;" vertex="1" parent="1">
          <mxGeometry x="15" y="74" width="120" height="60" as="geometry" />
        </mxCell>
        <mxCell id="vs1kBB6Tge2B4ktXbhhO-5" value="&lt;font style=&quot;font-size: 11px;&quot; face=&quot;calibri&quot;&gt;LCD_vidWritecmd((pos &amp;amp; 0x0F)| 0xC0)&lt;/font&gt;" style="rounded=0;whiteSpace=wrap;html=1;fontSize=16;fillColor=#d5e8d4;" vertex="1" parent="1">
          <mxGeometry x="15" y="246" width="120" height="60" as="geometry" />
        </mxCell>
        <mxCell id="vs1kBB6Tge2B4ktXbhhO-6" value="&lt;font face=&quot;calibri&quot; style=&quot;font-size: 11px;&quot;&gt;end&lt;/font&gt;" style="strokeWidth=2;html=1;shape=mxgraph.flowchart.terminator;whiteSpace=wrap;fontSize=16;fillColor=#dae8fc;strokeColor=#6c8ebf;" vertex="1" parent="1">
          <mxGeometry x="-211" y="388" width="141" height="60" as="geometry" />
        </mxCell>
        <mxCell id="uxhSXaf73qEXvOdrYMbk-4" value="" style="edgeStyle=none;curved=1;rounded=0;orthogonalLoop=1;jettySize=auto;html=1;fontSize=12;startSize=8;endSize=8;" edge="1" parent="1" source="uxhSXaf73qEXvOdrYMbk-1" target="uxhSXaf73qEXvOdrYMbk-2">
          <mxGeometry relative="1" as="geometry" />
        </mxCell>
        <mxCell id="uxhSXaf73qEXvOdrYMbk-7" value="" style="edgeStyle=none;curved=1;rounded=0;orthogonalLoop=1;jettySize=auto;html=1;fontSize=12;startSize=8;endSize=8;" edge="1" parent="1" source="uxhSXaf73qEXvOdrYMbk-1" target="vs1kBB6Tge2B4ktXbhhO-3">
          <mxGeometry relative="1" as="geometry" />
        </mxCell>
        <mxCell id="uxhSXaf73qEXvOdrYMbk-1" value="&lt;font style=&quot;font-size: 11px;&quot; face=&quot;calribri&quot;&gt;row =0 &amp;amp;&amp;amp; pos &amp;lt;16&lt;/font&gt;" style="rhombus;whiteSpace=wrap;html=1;fontSize=16;fillColor=#fff2cc;strokeColor=#d6b656;" vertex="1" parent="1">
          <mxGeometry x="-190.75" y="62" width="100.5" height="84" as="geometry" />
        </mxCell>
        <mxCell id="uxhSXaf73qEXvOdrYMbk-5" value="" style="edgeStyle=none;curved=1;rounded=0;orthogonalLoop=1;jettySize=auto;html=1;fontSize=12;startSize=8;endSize=8;" edge="1" parent="1" source="uxhSXaf73qEXvOdrYMbk-2" target="vs1kBB6Tge2B4ktXbhhO-6">
          <mxGeometry relative="1" as="geometry" />
        </mxCell>
        <mxCell id="uxhSXaf73qEXvOdrYMbk-6" value="" style="edgeStyle=none;curved=1;rounded=0;orthogonalLoop=1;jettySize=auto;html=1;fontSize=12;startSize=8;endSize=8;" edge="1" parent="1" source="uxhSXaf73qEXvOdrYMbk-2" target="vs1kBB6Tge2B4ktXbhhO-5">
          <mxGeometry relative="1" as="geometry" />
        </mxCell>
        <mxCell id="uxhSXaf73qEXvOdrYMbk-2" value="&lt;font style=&quot;font-size: 11px;&quot; face=&quot;calribri&quot;&gt;row=1 &amp;amp;&amp;amp; pos&amp;lt;16&lt;/font&gt;" style="rhombus;whiteSpace=wrap;html=1;fontSize=16;fillColor=#fff2cc;strokeColor=#d6b656;" vertex="1" parent="1">
          <mxGeometry x="-190.75" y="236" width="100.5" height="84" as="geometry" />
        </mxCell>
        <mxCell id="uxhSXaf73qEXvOdrYMbk-8" value="&lt;font style=&quot;font-size: 11px;&quot;&gt;TRUE&lt;/font&gt;" style="text;strokeColor=none;fillColor=none;html=1;align=center;verticalAlign=middle;whiteSpace=wrap;rounded=0;fontSize=16;" vertex="1" parent="1">
          <mxGeometry x="-87" y="68" width="60" height="30" as="geometry" />
        </mxCell>
        <mxCell id="uxhSXaf73qEXvOdrYMbk-9" value="&lt;font style=&quot;font-size: 11px;&quot;&gt;TRUE&lt;/font&gt;" style="text;strokeColor=none;fillColor=none;html=1;align=center;verticalAlign=middle;whiteSpace=wrap;rounded=0;fontSize=16;" vertex="1" parent="1">
          <mxGeometry x="-93" y="241" width="60" height="30" as="geometry" />
        </mxCell>
        <mxCell id="uxhSXaf73qEXvOdrYMbk-10" value="&lt;font style=&quot;font-size: 11px;&quot;&gt;FALSE&lt;/font&gt;" style="text;strokeColor=none;fillColor=none;html=1;align=center;verticalAlign=middle;whiteSpace=wrap;rounded=0;fontSize=16;" vertex="1" parent="1">
          <mxGeometry x="-122" y="202" width="60" height="30" as="geometry" />
        </mxCell>
        <mxCell id="uxhSXaf73qEXvOdrYMbk-11" value="&lt;font style=&quot;font-size: 11px;&quot;&gt;FALSE&lt;/font&gt;" style="text;strokeColor=none;fillColor=none;html=1;align=center;verticalAlign=middle;whiteSpace=wrap;rounded=0;fontSize=16;" vertex="1" parent="1">
          <mxGeometry x="-128" y="349" width="60" height="30" as="geometry" />
        </mxCell>
      </root>
    </mxGraphModel>
  </diagram>
  <diagram id="CIz6NzSW-vUCwl7KAoCv" name="Page-6">
    <mxGraphModel dx="1240" dy="904" grid="0" gridSize="10" guides="1" tooltips="1" connect="1" arrows="1" fold="1" page="0" pageScale="1" pageWidth="850" pageHeight="1100" math="0" shadow="0">
      <root>
        <mxCell id="0" />
        <mxCell id="1" parent="0" />
        <mxCell id="Ew5bP6Hehmq52tZcewlu-1" value="" style="edgeStyle=none;curved=1;rounded=0;orthogonalLoop=1;jettySize=auto;html=1;fontSize=12;startSize=8;endSize=8;" edge="1" parent="1" source="Ew5bP6Hehmq52tZcewlu-2" target="Ew5bP6Hehmq52tZcewlu-8">
          <mxGeometry relative="1" as="geometry" />
        </mxCell>
        <mxCell id="Ew5bP6Hehmq52tZcewlu-2" value="&lt;font face=&quot;calibri&quot; style=&quot;font-size: 11px;&quot;&gt;start&lt;/font&gt;" style="strokeWidth=2;html=1;shape=mxgraph.flowchart.terminator;whiteSpace=wrap;fontSize=16;fillColor=#dae8fc;strokeColor=#6c8ebf;" vertex="1" parent="1">
          <mxGeometry x="-211" y="-48" width="141" height="60" as="geometry" />
        </mxCell>
        <mxCell id="Ew5bP6Hehmq52tZcewlu-19" style="edgeStyle=none;curved=1;rounded=0;orthogonalLoop=1;jettySize=auto;html=1;entryX=0;entryY=0.5;entryDx=0;entryDy=0;fontSize=12;startSize=8;endSize=8;" edge="1" parent="1" source="Ew5bP6Hehmq52tZcewlu-3" target="Ew5bP6Hehmq52tZcewlu-8">
          <mxGeometry relative="1" as="geometry">
            <Array as="points">
              <mxPoint x="-277" y="350" />
              <mxPoint x="-288" y="107" />
              <mxPoint x="-258" y="102" />
            </Array>
          </mxGeometry>
        </mxCell>
        <mxCell id="Ew5bP6Hehmq52tZcewlu-3" value="&lt;font style=&quot;font-size: 11px;&quot; face=&quot;calibri&quot;&gt;string = str[++count]&lt;/font&gt;" style="rounded=0;whiteSpace=wrap;html=1;fontSize=16;fillColor=#d5e8d4;" vertex="1" parent="1">
          <mxGeometry x="-203.75" y="295" width="120" height="60" as="geometry" />
        </mxCell>
        <mxCell id="Ew5bP6Hehmq52tZcewlu-18" value="" style="edgeStyle=none;curved=1;rounded=0;orthogonalLoop=1;jettySize=auto;html=1;fontSize=12;startSize=8;endSize=8;" edge="1" parent="1" source="Ew5bP6Hehmq52tZcewlu-4" target="Ew5bP6Hehmq52tZcewlu-3">
          <mxGeometry relative="1" as="geometry" />
        </mxCell>
        <mxCell id="Ew5bP6Hehmq52tZcewlu-4" value="&lt;font style=&quot;font-size: 11px;&quot; face=&quot;calibri&quot;&gt;LCD_vidWriteChar(string)&lt;/font&gt;" style="rounded=0;whiteSpace=wrap;html=1;fontSize=16;fillColor=#d5e8d4;" vertex="1" parent="1">
          <mxGeometry x="-204" y="183" width="120.25" height="60" as="geometry" />
        </mxCell>
        <mxCell id="Ew5bP6Hehmq52tZcewlu-5" value="&lt;font face=&quot;calibri&quot; style=&quot;font-size: 11px;&quot;&gt;end&lt;/font&gt;" style="strokeWidth=2;html=1;shape=mxgraph.flowchart.terminator;whiteSpace=wrap;fontSize=16;fillColor=#dae8fc;strokeColor=#6c8ebf;" vertex="1" parent="1">
          <mxGeometry x="-5" y="78" width="141" height="60" as="geometry" />
        </mxCell>
        <mxCell id="Ew5bP6Hehmq52tZcewlu-16" value="" style="edgeStyle=none;curved=1;rounded=0;orthogonalLoop=1;jettySize=auto;html=1;fontSize=12;startSize=8;endSize=8;" edge="1" parent="1" source="Ew5bP6Hehmq52tZcewlu-8" target="Ew5bP6Hehmq52tZcewlu-4">
          <mxGeometry relative="1" as="geometry" />
        </mxCell>
        <mxCell id="Ew5bP6Hehmq52tZcewlu-17" value="" style="edgeStyle=none;curved=1;rounded=0;orthogonalLoop=1;jettySize=auto;html=1;fontSize=12;startSize=8;endSize=8;" edge="1" parent="1" source="Ew5bP6Hehmq52tZcewlu-8" target="Ew5bP6Hehmq52tZcewlu-5">
          <mxGeometry relative="1" as="geometry" />
        </mxCell>
        <mxCell id="Ew5bP6Hehmq52tZcewlu-8" value="&lt;font style=&quot;font-size: 11px;&quot; face=&quot;calribri&quot;&gt;string != NULL&lt;/font&gt;" style="rhombus;whiteSpace=wrap;html=1;fontSize=16;fillColor=#fff2cc;strokeColor=#d6b656;" vertex="1" parent="1">
          <mxGeometry x="-190.75" y="62" width="100.5" height="84" as="geometry" />
        </mxCell>
        <mxCell id="Ew5bP6Hehmq52tZcewlu-13" value="&lt;font style=&quot;font-size: 11px;&quot;&gt;TRUE&lt;/font&gt;" style="text;strokeColor=none;fillColor=none;html=1;align=center;verticalAlign=middle;whiteSpace=wrap;rounded=0;fontSize=16;" vertex="1" parent="1">
          <mxGeometry x="-130" y="146" width="60" height="30" as="geometry" />
        </mxCell>
        <mxCell id="Ew5bP6Hehmq52tZcewlu-14" value="&lt;font style=&quot;font-size: 11px;&quot;&gt;FALSE&lt;/font&gt;" style="text;strokeColor=none;fillColor=none;html=1;align=center;verticalAlign=middle;whiteSpace=wrap;rounded=0;fontSize=16;" vertex="1" parent="1">
          <mxGeometry x="-90.25" y="52" width="60" height="30" as="geometry" />
        </mxCell>
      </root>
    </mxGraphModel>
  </diagram>
  <diagram id="7fuL0A_z4-uRh1xN2MCD" name="Page-7">
    <mxGraphModel dx="1240" dy="904" grid="0" gridSize="10" guides="1" tooltips="1" connect="1" arrows="1" fold="1" page="0" pageScale="1" pageWidth="850" pageHeight="1100" math="0" shadow="0">
      <root>
        <mxCell id="0" />
        <mxCell id="1" parent="0" />
        <mxCell id="4UtjrvAmmFSjnJCQX0X_-1" value="" style="edgeStyle=none;curved=1;rounded=0;orthogonalLoop=1;jettySize=auto;html=1;fontSize=12;startSize=8;endSize=8;" edge="1" parent="1" source="4UtjrvAmmFSjnJCQX0X_-2" target="4UtjrvAmmFSjnJCQX0X_-5">
          <mxGeometry relative="1" as="geometry" />
        </mxCell>
        <mxCell id="4UtjrvAmmFSjnJCQX0X_-2" value="&lt;font face=&quot;calibri&quot; style=&quot;font-size: 11px;&quot;&gt;start&lt;/font&gt;" style="strokeWidth=2;html=1;shape=mxgraph.flowchart.terminator;whiteSpace=wrap;fontSize=16;fillColor=#dae8fc;strokeColor=#6c8ebf;" vertex="1" parent="1">
          <mxGeometry x="-211" y="-48" width="141" height="60" as="geometry" />
        </mxCell>
        <mxCell id="4UtjrvAmmFSjnJCQX0X_-3" value="&lt;font face=&quot;calibri&quot; style=&quot;font-size: 11px;&quot;&gt;convert number to string&lt;/font&gt;" style="rounded=0;whiteSpace=wrap;html=1;fontSize=16;fillColor=#d5e8d4;" vertex="1" parent="1">
          <mxGeometry x="-195" y="49" width="120" height="60" as="geometry" />
        </mxCell>
        <mxCell id="4UtjrvAmmFSjnJCQX0X_-4" value="" style="edgeStyle=none;curved=1;rounded=0;orthogonalLoop=1;jettySize=auto;html=1;fontSize=12;startSize=8;endSize=8;" edge="1" parent="1" source="4UtjrvAmmFSjnJCQX0X_-5" target="4UtjrvAmmFSjnJCQX0X_-6">
          <mxGeometry relative="1" as="geometry" />
        </mxCell>
        <mxCell id="4UtjrvAmmFSjnJCQX0X_-5" value="&lt;font face=&quot;calibri&quot; style=&quot;font-size: 11px;&quot;&gt;write string to lcd&lt;/font&gt;" style="rounded=0;whiteSpace=wrap;html=1;fontSize=16;fillColor=#d5e8d4;" vertex="1" parent="1">
          <mxGeometry x="-200.5" y="150" width="120" height="60" as="geometry" />
        </mxCell>
        <mxCell id="4UtjrvAmmFSjnJCQX0X_-6" value="&lt;font face=&quot;calibri&quot; style=&quot;font-size: 11px;&quot;&gt;end&lt;/font&gt;" style="strokeWidth=2;html=1;shape=mxgraph.flowchart.terminator;whiteSpace=wrap;fontSize=16;fillColor=#dae8fc;strokeColor=#6c8ebf;" vertex="1" parent="1">
          <mxGeometry x="-211" y="246" width="141" height="60" as="geometry" />
        </mxCell>
      </root>
    </mxGraphModel>
  </diagram>
  <diagram id="3x0DlPaxy3e7h6LvBZMi" name="Page-8">
    <mxGraphModel dx="1240" dy="904" grid="0" gridSize="10" guides="1" tooltips="1" connect="1" arrows="1" fold="1" page="0" pageScale="1" pageWidth="850" pageHeight="1100" math="0" shadow="0">
      <root>
        <mxCell id="0" />
        <mxCell id="1" parent="0" />
        <mxCell id="l4j9JWDaIlKq4VvROHDK-1" value="" style="edgeStyle=none;curved=1;rounded=0;orthogonalLoop=1;jettySize=auto;html=1;fontSize=12;startSize=8;endSize=8;" edge="1" parent="1" source="l4j9JWDaIlKq4VvROHDK-2" target="l4j9JWDaIlKq4VvROHDK-5">
          <mxGeometry relative="1" as="geometry" />
        </mxCell>
        <mxCell id="l4j9JWDaIlKq4VvROHDK-2" value="&lt;font face=&quot;calibri&quot; style=&quot;font-size: 11px;&quot;&gt;start&lt;/font&gt;" style="strokeWidth=2;html=1;shape=mxgraph.flowchart.terminator;whiteSpace=wrap;fontSize=16;fillColor=#dae8fc;strokeColor=#6c8ebf;" vertex="1" parent="1">
          <mxGeometry x="-211" y="-48" width="141" height="60" as="geometry" />
        </mxCell>
        <mxCell id="l4j9JWDaIlKq4VvROHDK-3" value="&lt;font face=&quot;calibri&quot; style=&quot;font-size: 11px;&quot;&gt;write the suitable command&lt;/font&gt;" style="rounded=0;whiteSpace=wrap;html=1;fontSize=16;fillColor=#d5e8d4;" vertex="1" parent="1">
          <mxGeometry x="-195" y="49" width="120" height="60" as="geometry" />
        </mxCell>
        <mxCell id="l4j9JWDaIlKq4VvROHDK-4" value="" style="edgeStyle=none;curved=1;rounded=0;orthogonalLoop=1;jettySize=auto;html=1;fontSize=12;startSize=8;endSize=8;" edge="1" parent="1" source="l4j9JWDaIlKq4VvROHDK-5" target="l4j9JWDaIlKq4VvROHDK-6">
          <mxGeometry relative="1" as="geometry" />
        </mxCell>
        <mxCell id="l4j9JWDaIlKq4VvROHDK-5" value="&lt;font face=&quot;calibri&quot; style=&quot;font-size: 11px;&quot;&gt;write the character to lcd&lt;/font&gt;" style="rounded=0;whiteSpace=wrap;html=1;fontSize=16;fillColor=#d5e8d4;" vertex="1" parent="1">
          <mxGeometry x="-200.5" y="150" width="120" height="60" as="geometry" />
        </mxCell>
        <mxCell id="l4j9JWDaIlKq4VvROHDK-6" value="&lt;font face=&quot;calibri&quot; style=&quot;font-size: 11px;&quot;&gt;end&lt;/font&gt;" style="strokeWidth=2;html=1;shape=mxgraph.flowchart.terminator;whiteSpace=wrap;fontSize=16;fillColor=#dae8fc;strokeColor=#6c8ebf;" vertex="1" parent="1">
          <mxGeometry x="-211" y="246" width="141" height="60" as="geometry" />
        </mxCell>
      </root>
    </mxGraphModel>
  </diagram>
  <diagram id="hYPtHtWHSbLmg2xfmhkB" name="Page-9">
    <mxGraphModel dx="1240" dy="904" grid="0" gridSize="10" guides="1" tooltips="1" connect="1" arrows="1" fold="1" page="0" pageScale="1" pageWidth="850" pageHeight="1100" math="0" shadow="0">
      <root>
        <mxCell id="0" />
        <mxCell id="1" parent="0" />
        <mxCell id="93RqbbsZQP55wNUh9DVM-1" value="" style="edgeStyle=none;curved=1;rounded=0;orthogonalLoop=1;jettySize=auto;html=1;fontSize=12;startSize=8;endSize=8;" edge="1" parent="1" source="93RqbbsZQP55wNUh9DVM-2" target="93RqbbsZQP55wNUh9DVM-8">
          <mxGeometry relative="1" as="geometry" />
        </mxCell>
        <mxCell id="93RqbbsZQP55wNUh9DVM-2" value="&lt;font face=&quot;calibri&quot; style=&quot;font-size: 11px;&quot;&gt;start&lt;/font&gt;" style="strokeWidth=2;html=1;shape=mxgraph.flowchart.terminator;whiteSpace=wrap;fontSize=16;fillColor=#dae8fc;strokeColor=#6c8ebf;" vertex="1" parent="1">
          <mxGeometry x="-211" y="-48" width="141" height="60" as="geometry" />
        </mxCell>
        <mxCell id="93RqbbsZQP55wNUh9DVM-20" value="" style="edgeStyle=none;curved=1;rounded=0;orthogonalLoop=1;jettySize=auto;html=1;fontSize=12;startSize=8;endSize=8;entryX=-0.012;entryY=0.25;entryDx=0;entryDy=0;entryPerimeter=0;" edge="1" parent="1" source="93RqbbsZQP55wNUh9DVM-3" target="93RqbbsZQP55wNUh9DVM-19">
          <mxGeometry relative="1" as="geometry">
            <Array as="points">
              <mxPoint x="-380" y="371" />
              <mxPoint x="-341" y="111" />
            </Array>
          </mxGeometry>
        </mxCell>
        <mxCell id="93RqbbsZQP55wNUh9DVM-22" value="" style="edgeStyle=none;curved=1;rounded=0;orthogonalLoop=1;jettySize=auto;html=1;fontSize=12;startSize=8;endSize=8;" edge="1" parent="1" source="93RqbbsZQP55wNUh9DVM-3" target="93RqbbsZQP55wNUh9DVM-21">
          <mxGeometry relative="1" as="geometry">
            <Array as="points">
              <mxPoint x="157" y="376" />
            </Array>
          </mxGeometry>
        </mxCell>
        <mxCell id="93RqbbsZQP55wNUh9DVM-3" value="&lt;font style=&quot;font-size: 11px;&quot; face=&quot;calibri&quot;&gt;write char to lcd&lt;/font&gt;" style="rounded=0;whiteSpace=wrap;html=1;fontSize=16;fillColor=#d5e8d4;" vertex="1" parent="1">
          <mxGeometry x="-198" y="341" width="120" height="60" as="geometry" />
        </mxCell>
        <mxCell id="93RqbbsZQP55wNUh9DVM-18" value="" style="edgeStyle=none;curved=1;rounded=0;orthogonalLoop=1;jettySize=auto;html=1;fontSize=12;startSize=8;endSize=8;" edge="1" parent="1" source="93RqbbsZQP55wNUh9DVM-4" target="93RqbbsZQP55wNUh9DVM-3">
          <mxGeometry relative="1" as="geometry" />
        </mxCell>
        <mxCell id="93RqbbsZQP55wNUh9DVM-4" value="&lt;font style=&quot;font-size: 11px;&quot; face=&quot;calibri&quot;&gt;write command to lcd&lt;/font&gt;" style="rounded=0;whiteSpace=wrap;html=1;fontSize=16;fillColor=#d5e8d4;" vertex="1" parent="1">
          <mxGeometry x="-198" y="239" width="120" height="60" as="geometry" />
        </mxCell>
        <mxCell id="93RqbbsZQP55wNUh9DVM-5" value="&lt;font face=&quot;calibri&quot; style=&quot;font-size: 11px;&quot;&gt;end&lt;/font&gt;" style="strokeWidth=2;html=1;shape=mxgraph.flowchart.terminator;whiteSpace=wrap;fontSize=16;fillColor=#dae8fc;strokeColor=#6c8ebf;" vertex="1" parent="1">
          <mxGeometry x="1" y="69" width="141" height="60" as="geometry" />
        </mxCell>
        <mxCell id="93RqbbsZQP55wNUh9DVM-6" value="" style="edgeStyle=none;curved=1;rounded=0;orthogonalLoop=1;jettySize=auto;html=1;fontSize=12;startSize=8;endSize=8;" edge="1" parent="1" source="93RqbbsZQP55wNUh9DVM-8">
          <mxGeometry relative="1" as="geometry">
            <mxPoint x="-140.5" y="236" as="targetPoint" />
          </mxGeometry>
        </mxCell>
        <mxCell id="93RqbbsZQP55wNUh9DVM-17" value="" style="edgeStyle=none;curved=1;rounded=0;orthogonalLoop=1;jettySize=auto;html=1;fontSize=12;startSize=8;endSize=8;" edge="1" parent="1" source="93RqbbsZQP55wNUh9DVM-8" target="93RqbbsZQP55wNUh9DVM-5">
          <mxGeometry relative="1" as="geometry" />
        </mxCell>
        <mxCell id="93RqbbsZQP55wNUh9DVM-8" value="&lt;font style=&quot;font-size: 11px;&quot; face=&quot;calribri&quot;&gt;location&amp;lt;8&lt;/font&gt;" style="rhombus;whiteSpace=wrap;html=1;fontSize=16;fillColor=#fff2cc;strokeColor=#d6b656;" vertex="1" parent="1">
          <mxGeometry x="-190.75" y="62" width="100.5" height="84" as="geometry" />
        </mxCell>
        <mxCell id="93RqbbsZQP55wNUh9DVM-12" value="&lt;font style=&quot;font-size: 11px;&quot;&gt;TRUE&lt;/font&gt;" style="text;strokeColor=none;fillColor=none;html=1;align=center;verticalAlign=middle;whiteSpace=wrap;rounded=0;fontSize=16;" vertex="1" parent="1">
          <mxGeometry x="-118" y="182" width="60" height="30" as="geometry" />
        </mxCell>
        <mxCell id="93RqbbsZQP55wNUh9DVM-14" value="&lt;font style=&quot;font-size: 11px;&quot;&gt;FALSE&lt;/font&gt;" style="text;strokeColor=none;fillColor=none;html=1;align=center;verticalAlign=middle;whiteSpace=wrap;rounded=0;fontSize=16;" vertex="1" parent="1">
          <mxGeometry x="-73" y="58" width="60" height="30" as="geometry" />
        </mxCell>
        <mxCell id="93RqbbsZQP55wNUh9DVM-19" value="" style="shape=waypoint;sketch=0;size=6;pointerEvents=1;points=[];fillColor=#d5e8d4;resizable=0;rotatable=0;perimeter=centerPerimeter;snapToPoint=1;fontSize=16;rounded=0;" vertex="1" parent="1">
          <mxGeometry x="-190.75" y="94" width="20" height="20" as="geometry" />
        </mxCell>
        <mxCell id="93RqbbsZQP55wNUh9DVM-21" value="" style="shape=waypoint;sketch=0;size=6;pointerEvents=1;points=[];fillColor=#d5e8d4;resizable=0;rotatable=0;perimeter=centerPerimeter;snapToPoint=1;fontSize=16;rounded=0;" vertex="1" parent="1">
          <mxGeometry x="61.5" y="119" width="20" height="20" as="geometry" />
        </mxCell>
      </root>
    </mxGraphModel>
  </diagram>
</mxfile>
